# xmcd
#
# Track frame offsets:
#	150
#	12340
#	28867
#	40105
#	53032
#	64412
#	72852
#	85195
#	97825
#	106757
#	115797
#	127270
#	139180
#	150042
#
# Disc length: 2241 seconds
# Revision: 3
# Processed by: cddbd v1.5.2PL0 Copyright (c) Steve Scherf et al.
# Submitted via: dBpowerAMP V12.0
#
DISCID=b008bf0e
DTITLE=Frank Frost - Jelly Roll King
DYEAR=1996
DGENRE=Blues
TTITLE0=Everything's Alright
TTITLE1=Lucky To Be Living
TTITLE2=Jelly Roll King
TTITLE3=Baby You're So Kind
TTITLE4=Gonna Make You Mine
TTITLE5=Now Twist
TTITLE6=Big Boss Man
TTITLE7=Now What You Gonna Do
TTITLE8=Just Come on Home
TTITLE9=Crawlback
TTITLE10=Things You Do
TTITLE11=Ride With Your Daddy Tonight
TTITLE12=Pocket Full Of Money
TTITLE13=Didn't Mean No Harm
EXTD=
EXTT0=
EXTT1=
EXTT2=
EXTT3=
EXTT4=
EXTT5=
EXTT6=
EXTT7=
EXTT8=
EXTT9=
EXTT10=
EXTT11=
EXTT12=
EXTT13=
PLAYORDER=
